<?xml version="1.0" encoding="UTF-8" standalone="no"?>
<!-- Created with Inkscape (http://www.inkscape.org/) -->

<svg
   width="210mm"
   height="297mm"
   viewBox="0 0 210 297"
   version="1.1"
   id="svg5"
   inkscape:version="1.2.1 (9c6d41e410, 2022-07-14)"
   sodipodi:docname="shamem-1.svg.2023_12_02_16_11_57.0.svg"
   xmlns:inkscape="http://www.inkscape.org/namespaces/inkscape"
   xmlns:sodipodi="http://sodipodi.sourceforge.net/DTD/sodipodi-0.dtd"
   xmlns="http://www.w3.org/2000/svg"
   xmlns:svg="http://www.w3.org/2000/svg">
  <sodipodi:namedview
     id="namedview7"
     pagecolor="#ffffff"
     bordercolor="#666666"
     borderopacity="1.0"
     inkscape:showpageshadow="2"
     inkscape:pageopacity="0.0"
     inkscape:pagecheckerboard="0"
     inkscape:deskcolor="#d1d1d1"
     inkscape:document-units="mm"
     showgrid="false"
     inkscape:zoom="1.4770342"
     inkscape:cx="401.14169"
     inkscape:cy="306.01864"
     inkscape:window-width="1920"
     inkscape:window-height="1009"
     inkscape:window-x="-8"
     inkscape:window-y="-8"
     inkscape:window-maximized="1"
     inkscape:current-layer="layer1" />
  <defs
     id="defs2" />
  <g
     inkscape:label="Layer 1"
     inkscape:groupmode="layer"
     id="layer1">
    <path
       id="text236"
       style="font-style:normal;font-variant:normal;font-weight:normal;font-stretch:normal;font-size:50.4869px;line-height:1.25;font-family:'Berlin Sans FB Demi';-inkscape-font-specification:'Berlin Sans FB Demi, Normal';font-variant-ligatures:normal;font-variant-caps:normal;font-variant-numeric:normal;font-variant-east-asian:normal;fill:#000080;fill-opacity:1;stroke:none;stroke-width:1.45074"
       d="m 69.454067,72.043063 c -0.44542,-0.0074 -0.89786,0.0093 -1.35735,0.05001 -2.53108,0.224328 -4.77132,1.036155 -6.72012,2.434544 -0.28096,0.202534 -1.6671,1.461863 -4.159027,3.778792 -1.468723,1.338078 -2.855866,2.064863 -4.161579,2.180588 -2.048965,0.181598 -3.701594,-0.595128 -4.957702,-2.331183 -0.55762,-0.785455 -1.315637,-2.423868 -2.273468,-4.914655 -0.09078,-0.258405 -0.2463,-0.378014 -0.467267,-0.35843 -0.622725,0.05519 -2.270123,0.902812 -4.941829,2.542907 -2.651618,1.638313 -3.953774,2.659747 -3.906991,3.064157 0.01022,0.08791 0.03284,0.201761 0.0692,0.340647 1.14039,3.718038 3.149199,6.781794 6.025553,9.191359 2.512824,2.118218 5.269043,3.308748 8.267279,3.579848 l 10e-7,-3.412026 -10e-7,-3.828251 11.774311,-10e-7 v 2.530125 c 0.75217,-0.639492 0.73192,-0.619353 2.0043,-1.703235 1.64136,-1.424432 3.07522,-2.190904 4.30058,-2.299506 1.36598,-0.121067 2.49657,0.356253 3.39214,1.431494 0.77272,0.890733 1.23247,1.968781 1.37893,3.23476 0.0204,0.175831 0.0198,0.43357 -0.002,0.772983 -0.0216,0.339423 -0.0245,0.579532 -0.008,0.720197 0.0366,0.3165 0.22545,0.45982 0.56694,0.42956 0.0803,-0.007 0.17824,-0.0427 0.29267,-0.10614 3.64357,-2.010439 6.1719,-3.308918 7.58543,-3.896045 0.46381,-0.200975 0.68062,-0.433663 0.65011,-0.697409 -0.0122,-0.105491 -0.04,-0.254043 -0.0825,-0.445675 -1.01148,-3.480779 -2.66188,-6.345557 -4.95135,-8.593978 -2.42761,-2.41159 -5.20013,-3.643436 -8.31808,-3.695436 z m -6.80899,14.848434 c -0.99515,0.846079 -2.56728,2.18519 -2.65185,2.25338 -2.06526,1.44424 -4.19278,2.26326 -6.38236,2.45733 -0.935164,0.0829 -1.847917,0.0801 -2.740101,-5.6e-4 l 2e-6,15.613093 h 11.774309 z"
       inkscape:export-filename="SRF.png"
       inkscape:export-xdpi="96"
       inkscape:export-ydpi="96" />
    <ellipse
       style="fill:#000080;stroke-width:0.235183"
       id="path398"
       cx="59.658367"
       cy="65.160973"
       rx="6.8887162"
       ry="6.9994378" />
    <path
       style="fill:none;stroke-width:0.288598"
       d="m 353.90425,451.10426 v -45.82183 l -1.37636,-0.27659 c -2.93894,-0.59061 -3.64153,-0.82295 -3.44525,-1.13931 0.18006,-0.2902 1.27375,-0.15026 4.28303,0.54801 l 0.53858,0.12497 v -5.86606 -5.86605 l 17.97543,-0.0628 c 9.88648,-0.0346 17.99205,-0.009 18.01237,0.0568 0.0203,0.0658 0.01,23.52081 -0.024,52.12219 l -0.0609,52.0025 H 371.8557 353.90425 Z"
       id="path804"
       transform="scale(0.26458333)" />
    <path
       style="fill:none;stroke-width:0.288598"
       d="m 353.90425,451.10426 v -45.82183 l -1.37636,-0.27659 c -2.93894,-0.59061 -3.64153,-0.82295 -3.44525,-1.13931 0.18006,-0.2902 1.27375,-0.15026 4.28303,0.54801 l 0.53858,0.12497 v -5.86606 -5.86605 l 17.97543,-0.0628 c 9.88648,-0.0346 17.99205,-0.009 18.01237,0.0568 0.0203,0.0658 0.01,23.52081 -0.024,52.12219 l -0.0609,52.0025 H 371.8557 353.90425 Z"
       id="path806"
       transform="scale(0.26458333)" />
    <path
       id="rect293"
       style="fill:#000080;stroke-width:0.319"
       d="m 83.216747,87.106936 h 23.027533 v -7.72666 H 85.047117 c 0.0381,0.06428 0.0763,0.128355 0.11369,0.19327 0.0516,0.08952 0.10264,0.179543 0.15297,0.270268 0.0503,0.09072 0.0997,0.182473 0.14882,0.274402 0.0491,0.09193 0.0979,0.18437 0.14573,0.277502 0.0478,0.09313 0.095,0.186785 0.14159,0.28112 0.0466,0.09434 0.0926,0.189199 0.13798,0.284737 0.0453,0.09554 0.0898,0.191613 0.13384,0.288355 0.0441,0.09674 0.0879,0.194026 0.13074,0.291971 0.0428,0.09795 0.085,0.196441 0.12661,0.29559 0.0416,0.09915 0.0821,0.199371 0.12247,0.299723 0.0404,0.100352 0.0803,0.201269 0.11938,0.302824 0.0391,0.101555 0.0774,0.203683 0.11523,0.306441 0.0379,0.102758 0.075,0.206097 0.11163,0.310059 0.0366,0.103961 0.0726,0.208511 0.108,0.313676 0.0354,0.105164 0.0703,0.210925 0.10439,0.317293 0.0341,0.106368 0.0674,0.213339 0.10025,0.320911 0.0329,0.107571 0.065,0.215753 0.0966,0.324528 0.0213,0.09582 0.0389,0.180486 0.0527,0.254764 0.0138,0.07428 0.0239,0.137941 0.03,0.190686 0.002,0.01649 0.003,0.03285 0.003,0.04909 -3e-5,0.01624 -0.001,0.03258 -0.003,0.04858 -0.002,0.016 -0.005,0.03179 -0.009,0.04754 -0.004,0.01575 -0.009,0.03151 -0.0145,0.04703 -0.006,0.01551 -0.0129,0.03072 -0.0207,0.04599 -0.008,0.01527 -0.0161,0.03045 -0.0258,0.04547 -0.01,0.01502 -0.0204,0.02966 -0.032,0.04444 -0.0116,0.01478 -0.0242,0.02939 -0.0377,0.04393 -0.0136,0.01453 -0.0279,0.02912 -0.0434,0.04341 -0.0155,0.01429 -0.0322,0.02833 -0.0496,0.04237 -0.0174,0.01404 -0.0359,0.02806 -0.0553,0.04186 -0.0193,0.0138 -0.0392,0.02779 -0.0605,0.04134 -0.0213,0.01355 -0.044,0.02649 -0.0672,0.03979 -0.0232,0.0133 -0.0472,0.02674 -0.0724,0.03979 -0.0503,0.02611 -0.10429,0.05188 -0.16226,0.077 -0.0884,0.0367 -0.18097,0.07609 -0.27802,0.118339 -0.0971,0.04225 -0.19861,0.08706 -0.30438,0.134876 -0.10576,0.04781 -0.21573,0.09856 -0.33021,0.151928 -0.11447,0.05337 -0.23338,0.109538 -0.35657,0.168466 -0.12318,0.05893 -0.25051,0.120515 -0.3824,0.185001 -0.1319,0.06449 -0.26816,0.13201 -0.40876,0.202055 -0.28121,0.140091 -0.58002,0.29139 -0.89607,0.453719 -0.1316,0.06759 -0.27888,0.145082 -0.41651,0.216524 z" />
    <path
       id="rect291"
       style="fill:#000080;stroke-width:0.319"
       d="m 87.459437,99.417299 h 10.29808 v -7.220234 h -13.933 z" />
    <rect
       style="fill:#000080;stroke-width:0.358149"
       id="rect1118"
       width="9.2256317"
       height="15.530039"
       x="19.35173"
       y="114.6552"
       transform="matrix(0.89201236,-0.45201101,0.44730232,0.89438282,0,0)" />
    <rect
       style="fill:#000000;stroke-width:0.319"
       id="rect430"
       width="1.1399858"
       height="51.706108"
       x="115.61991"
       y="58.161537" />
    <text
       xml:space="preserve"
       style="font-style:normal;font-variant:normal;font-weight:normal;font-stretch:normal;font-size:17.6389px;line-height:1.25;font-family:Archive;-inkscape-font-specification:'Archive, Normal';font-variant-ligatures:normal;font-variant-caps:normal;font-variant-numeric:normal;font-variant-east-asian:normal;fill:#008000;fill-opacity:1;stroke:none;stroke-width:0.264583"
       x="122.43754"
       y="77.844559"
       id="text490"><tspan
         sodipodi:role="line"
         id="tspan488"
         style="font-style:normal;font-variant:normal;font-weight:normal;font-stretch:normal;font-size:17.6389px;font-family:Archive;-inkscape-font-specification:'Archive, Normal';font-variant-ligatures:normal;font-variant-caps:normal;font-variant-numeric:normal;font-variant-east-asian:normal;stroke-width:0.264583;fill:#008000"
         x="122.43754"
         y="77.844559">SHAMEM</tspan></text>
    <text
       xml:space="preserve"
       style="font-style:normal;font-variant:normal;font-weight:normal;font-stretch:normal;font-size:14.0865px;line-height:1.25;font-family:Archive;-inkscape-font-specification:'Archive, Normal';font-variant-ligatures:normal;font-variant-caps:normal;font-variant-numeric:normal;font-variant-east-asian:normal;fill:#000000;fill-opacity:1;stroke:none;stroke-width:0.352162"
       x="121.87137"
       y="90.276192"
       id="text494"><tspan
         sodipodi:role="line"
         id="tspan492"
         style="font-style:normal;font-variant:normal;font-weight:normal;font-stretch:normal;font-size:14.0865px;font-family:Archive;-inkscape-font-specification:'Archive, Normal';font-variant-ligatures:normal;font-variant-caps:normal;font-variant-numeric:normal;font-variant-east-asian:normal;stroke-width:0.352162"
         x="121.87137"
         y="90.276192">RESEARCH</tspan></text>
    <text
       xml:space="preserve"
       style="font-style:normal;font-variant:normal;font-weight:normal;font-stretch:normal;font-size:11.6825px;line-height:1.25;font-family:Archive;-inkscape-font-specification:'Archive, Normal';font-variant-ligatures:normal;font-variant-caps:normal;font-variant-numeric:normal;font-variant-east-asian:normal;fill:#000000;fill-opacity:1;stroke:none;stroke-width:0.292062"
       x="122.04915"
       y="101.03664"
       id="text548"><tspan
         sodipodi:role="line"
         id="tspan546"
         style="font-style:normal;font-variant:normal;font-weight:normal;font-stretch:normal;font-size:11.6825px;font-family:Archive;-inkscape-font-specification:'Archive, Normal';font-variant-ligatures:normal;font-variant-caps:normal;font-variant-numeric:normal;font-variant-east-asian:normal;stroke-width:0.292062"
         x="122.04915"
         y="101.03664">FOUNDATION</tspan></text>
  </g>
</svg>
