<?xml version="1.0" encoding="UTF-8" standalone="no"?>
<!-- Created with Inkscape (http://www.inkscape.org/) -->

<svg
   width="80mm"
   height="80mm"
   viewBox="0 0 80 80"
   version="1.1"
   id="svg5"
   inkscape:version="1.2.2 (732a01da63, 2022-12-09)"
   sodipodi:docname="favicon.svg"
   xmlns:inkscape="http://www.inkscape.org/namespaces/inkscape"
   xmlns:sodipodi="http://sodipodi.sourceforge.net/DTD/sodipodi-0.dtd"
   xmlns="http://www.w3.org/2000/svg"
   xmlns:svg="http://www.w3.org/2000/svg">
  <sodipodi:namedview
     id="namedview7"
     pagecolor="#ffffff"
     bordercolor="#666666"
     borderopacity="1.0"
     inkscape:showpageshadow="2"
     inkscape:pageopacity="0.0"
     inkscape:pagecheckerboard="0"
     inkscape:deskcolor="#d1d1d1"
     inkscape:document-units="mm"
     showgrid="false"
     inkscape:zoom="1"
     inkscape:cx="74"
     inkscape:cy="79"
     inkscape:window-width="1920"
     inkscape:window-height="986"
     inkscape:window-x="-11"
     inkscape:window-y="-11"
     inkscape:window-maximized="1"
     inkscape:current-layer="layer1" />
  <defs
     id="defs2" />
  <g
     inkscape:label="Layer 1"
     inkscape:groupmode="layer"
     id="layer1"
     transform="translate(-36.507517,-58.161535)">
    <rect
       style="fill:#ffffff;fill-opacity:1;stroke:none;stroke-width:0;stroke-linecap:butt;stroke-linejoin:round;stroke-dasharray:none;stroke-opacity:1"
       id="rect290"
       width="80"
       height="80"
       x="36.507519"
       y="58.161533"
       ry="16.33666" />
    <path
       id="text236"
       style="font-style:normal;font-variant:normal;font-weight:normal;font-stretch:normal;font-size:50.4869px;line-height:1.25;font-family:'Berlin Sans FB Demi';-inkscape-font-specification:'Berlin Sans FB Demi, Normal';font-variant-ligatures:normal;font-variant-caps:normal;font-variant-numeric:normal;font-variant-east-asian:normal;fill:#000080;fill-opacity:1;stroke:none;stroke-width:1.45074"
       d="m 74.585685,87.279709 c -0.44542,-0.0074 -0.89786,0.0093 -1.35735,0.05001 -2.53108,0.224328 -4.77132,1.036155 -6.72012,2.434544 -0.28096,0.202534 -1.6671,1.461863 -4.159027,3.778792 -1.468723,1.338078 -2.855866,2.064863 -4.161579,2.180588 -2.048965,0.181598 -3.701594,-0.595128 -4.957702,-2.331183 -0.55762,-0.785455 -1.315637,-2.423868 -2.273468,-4.914655 -0.09078,-0.258405 -0.2463,-0.378014 -0.467267,-0.35843 -0.622725,0.05519 -2.270123,0.902812 -4.941829,2.542907 -2.651618,1.638313 -3.953774,2.659747 -3.906991,3.064157 0.01022,0.08791 0.03284,0.201761 0.0692,0.340647 1.14039,3.718038 3.149199,6.781794 6.025553,9.191354 2.512824,2.11822 5.269043,3.30875 8.267279,3.57985 l 10e-7,-3.41202 -10e-7,-3.828254 11.774311,-10e-7 v 2.530125 c 0.75217,-0.63949 0.73192,-0.61935 2.0043,-1.70324 1.64136,-1.424427 3.07522,-2.190899 4.30058,-2.299501 1.36598,-0.121067 2.49657,0.356253 3.39214,1.431494 0.77272,0.890737 1.23247,1.968777 1.37893,3.234757 0.0204,0.17583 0.0198,0.43357 -0.002,0.77299 -0.0216,0.33942 -0.0245,0.57953 -0.008,0.72019 0.0366,0.3165 0.22545,0.45982 0.56694,0.42956 0.0803,-0.007 0.17824,-0.0427 0.29267,-0.10614 3.64357,-2.01044 6.1719,-3.30892 7.58543,-3.89604 0.46381,-0.20098 0.68062,-0.43367 0.65011,-0.69741 -0.0122,-0.105492 -0.04,-0.254044 -0.0825,-0.445676 -1.01148,-3.480779 -2.66188,-6.345557 -4.95135,-8.593978 -2.42761,-2.41159 -5.20013,-3.643436 -8.31808,-3.695436 z m -6.80899,14.848431 c -0.99515,0.84608 -2.56728,2.18519 -2.65185,2.25338 -2.06526,1.44424 -4.19278,2.26326 -6.38236,2.45733 -0.935164,0.0829 -1.847917,0.0801 -2.740101,-5.6e-4 l 2e-6,15.6131 h 11.774309 z"
       inkscape:export-filename="SRF.png"
       inkscape:export-xdpi="96"
       inkscape:export-ydpi="96" />
    <ellipse
       style="fill:#000080;stroke-width:0.235183"
       id="path398"
       cx="64.789986"
       cy="80.397621"
       rx="6.8887162"
       ry="6.9994378" />
    <path
       id="rect293"
       style="fill:#000080;stroke-width:0.319"
       d="M 88.348365,102.34358 H 111.3759 V 94.616922 H 90.178735 c 0.0381,0.06428 0.0763,0.128355 0.11369,0.19327 0.0516,0.08952 0.10264,0.179543 0.15297,0.270268 0.0503,0.09072 0.0997,0.182473 0.14882,0.274402 0.0491,0.09193 0.0979,0.18437 0.14573,0.277502 0.0478,0.09313 0.095,0.186785 0.14159,0.28112 0.0466,0.09434 0.0926,0.189199 0.13798,0.284737 0.0453,0.09554 0.0898,0.191613 0.13384,0.288355 0.0441,0.09674 0.0879,0.194026 0.13074,0.291971 0.0428,0.09795 0.085,0.196441 0.12661,0.29559 0.0416,0.09915 0.0821,0.199371 0.12247,0.299723 0.0404,0.100352 0.0803,0.201269 0.11938,0.302824 0.0391,0.101555 0.0774,0.203683 0.11523,0.306441 0.0379,0.102758 0.075,0.206097 0.11163,0.310059 0.0366,0.103961 0.0726,0.208511 0.108,0.313676 0.0354,0.105164 0.0703,0.210925 0.10439,0.317293 0.0341,0.106368 0.0674,0.213339 0.10025,0.320911 0.0329,0.107571 0.065,0.215753 0.0966,0.324528 0.0213,0.09582 0.0389,0.180486 0.0527,0.254764 0.0138,0.07428 0.0239,0.137941 0.03,0.190684 0.002,0.0165 0.003,0.0328 0.003,0.0491 -3e-5,0.0162 -10e-4,0.0326 -0.003,0.0486 -0.002,0.016 -0.005,0.0318 -0.009,0.0475 -0.004,0.0157 -0.009,0.0315 -0.0145,0.047 -0.006,0.0155 -0.0129,0.0307 -0.0207,0.046 -0.008,0.0153 -0.0161,0.0305 -0.0258,0.0455 -0.01,0.015 -0.0204,0.0297 -0.032,0.0444 -0.0116,0.0148 -0.0242,0.0294 -0.0377,0.0439 -0.0136,0.0145 -0.0279,0.0291 -0.0434,0.0434 -0.0155,0.0143 -0.0322,0.0283 -0.0496,0.0424 -0.0174,0.014 -0.0359,0.0281 -0.0553,0.0419 -0.0193,0.0138 -0.0392,0.0278 -0.0605,0.0413 -0.0213,0.0136 -0.044,0.0265 -0.0672,0.0398 -0.0232,0.0133 -0.0472,0.0267 -0.0724,0.0398 -0.0503,0.0261 -0.10429,0.0519 -0.16226,0.077 -0.0884,0.0367 -0.18097,0.0761 -0.27802,0.11834 -0.0971,0.0422 -0.19861,0.0871 -0.30438,0.13488 -0.10576,0.0478 -0.21573,0.0986 -0.33021,0.15192 -0.11447,0.0534 -0.23338,0.10954 -0.35657,0.16847 -0.12318,0.0589 -0.25051,0.12052 -0.3824,0.185 -0.1319,0.0645 -0.26816,0.13201 -0.40876,0.20206 -0.28121,0.14009 -0.58002,0.29139 -0.89607,0.45372 -0.1316,0.0676 -0.27888,0.14508 -0.41651,0.21652 z" />
    <path
       id="rect291"
       style="fill:#000080;stroke-width:0.319"
       d="m 92.591055,114.65394 h 10.298085 v -7.22023 H 88.956135 Z" />
    <rect
       style="fill:#000080;stroke-width:0.358149"
       id="rect1118"
       width="9.2256317"
       height="15.530039"
       x="17.125944"
       y="130.56624"
       transform="matrix(0.89201236,-0.45201101,0.44730232,0.89438282,0,0)" />
  </g>
</svg>
